<svg xmlns="http://www.w3.org/2000/svg" width="110" height="110" viewBox="0 0 100 100">
  <defs>
    <linearGradient id="h-bg" x1="0%" y1="0%" x2="0%" y2="100%">
      <stop offset="0%" stop-color="#1e293b" />
      <stop offset="100%" stop-color="#0f172a" />
    </linearGradient>
    <linearGradient id="h-orange" x1="0%" y1="0%" x2="0%" y2="100%">
      <stop offset="0%" stop-color="#fbbf24" />
      <stop offset="100%" stop-color="#d97706" />
    </linearGradient>
    <polygon id="hx-cell" points="4.00,0.00 2.00,3.46 -2.00,3.46 -4.00,0.00 -2.00,-3.46 2.00,-3.46" />
    <polygon id="hx-piece" points="3.80,0.00 1.90,3.29 -1.90,3.29 -3.80,0.00 -1.90,-3.29 1.90,-3.29" />
    <filter id="h-shadow" x="-20%" y="-20%" width="140%" height="140%">
      <feDropShadow dx="0" dy="2" stdDeviation="1.5" flood-color="#000" flood-opacity="0.6"/>
    </filter>
  </defs>

  <!-- Empty Cells -->
  <g fill="url(#h-bg)" stroke="#334155" stroke-width="0.8">
    <use href="#hx-cell" x="26.00" y="31.14" data-q="-4" data-r="0" />
    <use href="#hx-cell" x="26.00" y="38.07" data-q="-4" data-r="1" />
    <use href="#hx-cell" x="26.00" y="45.00" data-q="-4" data-r="2" />
    <use href="#hx-cell" x="26.00" y="51.93" data-q="-4" data-r="3" />
    <use href="#hx-cell" x="26.00" y="58.86" data-q="-4" data-r="4" />
    <use href="#hx-cell" x="32.00" y="27.68" data-q="-3" data-r="-1" />
    <use href="#hx-cell" x="32.00" y="34.61" data-q="-3" data-r="0" />
    <use href="#hx-cell" x="32.00" y="41.54" data-q="-3" data-r="1" />
    <use href="#hx-cell" x="32.00" y="48.46" data-q="-3" data-r="2" />
    <use href="#hx-cell" x="32.00" y="55.39" data-q="-3" data-r="3" />
    <use href="#hx-cell" x="32.00" y="62.32" data-q="-3" data-r="4" />
    <use href="#hx-cell" x="38.00" y="24.22" data-q="-2" data-r="-2" />
    <use href="#hx-cell" x="38.00" y="31.14" data-q="-2" data-r="-1" />
    <use href="#hx-cell" x="38.00" y="38.07" data-q="-2" data-r="0" />
    <use href="#hx-cell" x="38.00" y="45.00" data-q="-2" data-r="1" />
    <use href="#hx-cell" x="38.00" y="51.93" data-q="-2" data-r="2" />
    <use href="#hx-cell" x="38.00" y="58.86" data-q="-2" data-r="3" />
    <use href="#hx-cell" x="38.00" y="65.78" data-q="-2" data-r="4" />
    <use href="#hx-cell" x="44.00" y="20.75" data-q="-1" data-r="-3" />
    <use href="#hx-cell" x="44.00" y="27.68" data-q="-1" data-r="-2" />
    <use href="#hx-cell" x="44.00" y="34.61" data-q="-1" data-r="-1" />
    <use href="#hx-cell" x="44.00" y="41.54" data-q="-1" data-r="0" />
    <use href="#hx-cell" x="44.00" y="48.46" data-q="-1" data-r="1" />
    <use href="#hx-cell" x="44.00" y="55.39" data-q="-1" data-r="2" />
    <use href="#hx-cell" x="44.00" y="62.32" data-q="-1" data-r="3" />
    <use href="#hx-cell" x="44.00" y="69.25" data-q="-1" data-r="4" />
    <use href="#hx-cell" x="50.00" y="17.29" data-q="0" data-r="-4" />
    <use href="#hx-cell" x="50.00" y="24.22" data-q="0" data-r="-3" />
    <use href="#hx-cell" x="50.00" y="31.14" data-q="0" data-r="-2" />
    <use href="#hx-cell" x="50.00" y="38.07" data-q="0" data-r="-1" />
    <use href="#hx-cell" x="50.00" y="45.00" data-q="0" data-r="0" />
    <use href="#hx-cell" x="50.00" y="51.93" data-q="0" data-r="1" />
    <use href="#hx-cell" x="50.00" y="58.86" data-q="0" data-r="2" />
    <use href="#hx-cell" x="50.00" y="65.78" data-q="0" data-r="3" />
    <use href="#hx-cell" x="50.00" y="72.71" data-q="0" data-r="4" />
    <use href="#hx-cell" x="56.00" y="20.75" data-q="1" data-r="-4" />
    <use href="#hx-cell" x="56.00" y="27.68" data-q="1" data-r="-3" />
    <use href="#hx-cell" x="56.00" y="34.61" data-q="1" data-r="-2" />
    <use href="#hx-cell" x="56.00" y="41.54" data-q="1" data-r="-1" />
    <use href="#hx-cell" x="56.00" y="48.46" data-q="1" data-r="0" />
    <use href="#hx-cell" x="56.00" y="55.39" data-q="1" data-r="1" />
    <use href="#hx-cell" x="56.00" y="62.32" data-q="1" data-r="2" />
    <use href="#hx-cell" x="56.00" y="69.25" data-q="1" data-r="3" />
    <use href="#hx-cell" x="62.00" y="24.22" data-q="2" data-r="-4" />
    <use href="#hx-cell" x="62.00" y="31.14" data-q="2" data-r="-3" />
    <use href="#hx-cell" x="62.00" y="38.07" data-q="2" data-r="-2" />
    <use href="#hx-cell" x="62.00" y="45.00" data-q="2" data-r="-1" />
    <use href="#hx-cell" x="62.00" y="51.93" data-q="2" data-r="0" />
    <use href="#hx-cell" x="62.00" y="58.86" data-q="2" data-r="1" />
    <use href="#hx-cell" x="62.00" y="65.78" data-q="2" data-r="2" />
    <use href="#hx-cell" x="68.00" y="27.68" data-q="3" data-r="-4" />
    <use href="#hx-cell" x="68.00" y="34.61" data-q="3" data-r="-3" />
    <use href="#hx-cell" x="68.00" y="41.54" data-q="3" data-r="-2" />
    <use href="#hx-cell" x="68.00" y="48.46" data-q="3" data-r="-1" />
    <use href="#hx-cell" x="68.00" y="55.39" data-q="3" data-r="0" />
    <use href="#hx-cell" x="68.00" y="62.32" data-q="3" data-r="1" />
    <use href="#hx-cell" x="74.00" y="31.14" data-q="4" data-r="-4" />
    <use href="#hx-cell" x="74.00" y="38.07" data-q="4" data-r="-3" />
    <use href="#hx-cell" x="74.00" y="45.00" data-q="4" data-r="-2" />
    <use href="#hx-cell" x="74.00" y="51.93" data-q="4" data-r="-1" />
    <use href="#hx-cell" x="74.00" y="58.86" data-q="4" data-r="0" />

  </g>

  <!-- Placed Orange Blocks -->
  <g filter="url(#h-shadow)">
    <g fill="url(#h-orange)" stroke="#fcd34d" stroke-width="0.5">
      <use href="#hx-piece" x="26.00" y="45.00" />
      <use href="#hx-piece" x="26.00" y="51.93" />
      <use href="#hx-piece" x="26.00" y="58.86" />
      <use href="#hx-piece" x="32.00" y="41.54" />
      <use href="#hx-piece" x="32.00" y="48.46" />
      <use href="#hx-piece" x="32.00" y="55.39" />
      <use href="#hx-piece" x="32.00" y="62.32" />
      <use href="#hx-piece" x="38.00" y="38.07" />
      <use href="#hx-piece" x="38.00" y="45.00" />
      <use href="#hx-piece" x="38.00" y="51.93" />
      <use href="#hx-piece" x="38.00" y="58.86" />
      <use href="#hx-piece" x="38.00" y="65.78" />
      <use href="#hx-piece" x="44.00" y="34.61" />
      <use href="#hx-piece" x="44.00" y="41.54" />
      <use href="#hx-piece" x="44.00" y="48.46" />
      <use href="#hx-piece" x="44.00" y="55.39" />
      <use href="#hx-piece" x="44.00" y="62.32" />
      <use href="#hx-piece" x="44.00" y="69.25" />
      <use href="#hx-piece" x="50.00" y="38.07" />
      <use href="#hx-piece" x="50.00" y="45.00" />
      <use href="#hx-piece" x="50.00" y="51.93" />
      <use href="#hx-piece" x="50.00" y="58.86" />
      <use href="#hx-piece" x="50.00" y="65.78" />
      <use href="#hx-piece" x="56.00" y="34.61" />
      <use href="#hx-piece" x="56.00" y="41.54" />
      <use href="#hx-piece" x="56.00" y="55.39" />
      <use href="#hx-piece" x="56.00" y="62.32" />
      <use href="#hx-piece" x="62.00" y="38.07" />
      <use href="#hx-piece" x="62.00" y="45.00" />
      <use href="#hx-piece" x="62.00" y="58.86" />
      <use href="#hx-piece" x="68.00" y="41.54" />
      <use href="#hx-piece" x="68.00" y="48.46" />


    <!-- Hand Piece 1 -->
    <g transform="translate(22, 90) scale(0.9)">
      <use href="#hx-piece" x="-6.0" y="3.4641016151377544" />
      <use href="#hx-piece" x="0" y="0" />
      <use href="#hx-piece" x="0" y="6.928203230275509" />
      <use href="#hx-piece" x="6.0" y="3.4641016151377544" />
    </g>

    <!-- Hand Piece 2 -->
    <g transform="translate(44, 90) scale(0.9)">
      <use href="#hx-piece" x="0" y="0" />
      <use href="#hx-piece" x="0" y="6.928203230275509" />
      <use href="#hx-piece" x="6.0" y="10.392304845413264" />
    </g>

    <!-- Hand Piece 3 -->
    <g transform="translate(84, 87) scale(0.9)">
      <use href="#hx-piece" x="0" y="0" />
      <use href="#hx-piece" x="-6.0" y="3.4641016151377544" />
      <use href="#hx-piece" x="-12.0" y="6.928203230275509" />
      <use href="#hx-piece" x="-18.0" y="10.392304845413264" />
    </g>

    </g>
  </g>
</svg>
