<svg xmlns="http://www.w3.org/2000/svg" width="110" height="110" viewBox="0 0 100 100">
  <defs>
    <linearGradient id="h-bg" x1="0%" y1="0%" x2="0%" y2="100%">
      <stop offset="0%" stop-color="#334155" />
      <stop offset="100%" stop-color="#1e293b" />
    </linearGradient>
    <linearGradient id="h-blue" x1="0%" y1="0%" x2="0%" y2="100%">
      <stop offset="0%" stop-color="#60a5fa" /><stop offset="100%" stop-color="#2563eb" />
    </linearGradient>
    <linearGradient id="h-red" x1="0%" y1="0%" x2="0%" y2="100%">
      <stop offset="0%" stop-color="#f87171" /><stop offset="100%" stop-color="#dc2626" />
    </linearGradient>
    <linearGradient id="h-yellow" x1="0%" y1="0%" x2="0%" y2="100%">
      <stop offset="0%" stop-color="#fde047" /><stop offset="100%" stop-color="#ca8a04" />
    </linearGradient>
    <linearGradient id="h-green" x1="0%" y1="0%" x2="0%" y2="100%">
      <stop offset="0%" stop-color="#4ade80" /><stop offset="100%" stop-color="#16a34a" />
    </linearGradient>
    <polygon id="hx-cell" points="0,-8 6.9,-4 6.9,4 0,8 -6.9,4 -6.9,-4" />
    <polygon id="hx-piece" points="0,-7.5 6.5,-3.75 6.5,3.75 0,7.5 -6.5,3.75 -6.5,-3.75" />
    <filter id="h-shadow" x="-20%" y="-20%" width="140%" height="140%">
      <feDropShadow dx="0" dy="3" stdDeviation="2" flood-color="#000" flood-opacity="0.5"/>
    </filter>
  </defs>
  <g fill="url(#h-bg)" stroke="#0f172a" stroke-width="1.5">
    <use href="#hx-cell" x="50" y="50" />
    <use href="#hx-cell" x="63.9" y="50" />
    <use href="#hx-cell" x="56.9" y="62" />
    <use href="#hx-cell" x="43.1" y="62" />
    <use href="#hx-cell" x="36.1" y="50" />
    <use href="#hx-cell" x="43.1" y="38" />
    <use href="#hx-cell" x="56.9" y="38" />
    <use href="#hx-cell" x="77.7" y="50" />
    <use href="#hx-cell" x="70.8" y="62" />
    <use href="#hx-cell" x="56.9" y="74" />
    <use href="#hx-cell" x="43.1" y="74" />
    <use href="#hx-cell" x="29.2" y="74" />
    <use href="#hx-cell" x="22.3" y="62" />
    <use href="#hx-cell" x="22.3" y="50" />
    <use href="#hx-cell" x="29.2" y="38" />
    <use href="#hx-cell" x="43.1" y="26" />
    <use href="#hx-cell" x="56.9" y="26" />
    <use href="#hx-cell" x="70.8" y="26" />
    <use href="#hx-cell" x="77.7" y="38" />
  </g>
  <g filter="url(#h-shadow)">
    <g fill="url(#h-blue)" stroke="rgba(255,255,255,0.3)" stroke-width="1">
      <use href="#hx-piece" x="43.1" y="38" />
      <use href="#hx-piece" x="29.2" y="38" />
      <use href="#hx-piece" x="43.1" y="26" />
    </g>
    <g fill="url(#h-red)" stroke="rgba(255,255,255,0.3)" stroke-width="1">
      <use href="#hx-piece" x="70.8" y="26" />
      <use href="#hx-piece" x="77.7" y="38" />
      <use href="#hx-piece" x="77.7" y="50" />
      <use href="#hx-piece" x="70.8" y="62" />
    </g>
    <g fill="url(#h-green)" stroke="rgba(255,255,255,0.3)" stroke-width="1">
      <use href="#hx-piece" x="50" y="50" />
      <use href="#hx-piece" x="36.1" y="50" />
      <use href="#hx-piece" x="43.1" y="62" />
      <use href="#hx-piece" x="56.9" y="62" />
    </g>
    <g fill="url(#h-yellow)" stroke="rgba(255,255,255,0.4)" stroke-width="1.5" transform="scale(1.1) translate(-3, 1)">
      <use href="#hx-piece" x="43.1" y="74" />
      <use href="#hx-piece" x="56.9" y="74" />
    </g>
  </g>
</svg>
