<svg xmlns="http://www.w3.org/2000/svg" viewBox="0 0 500 500">
  <defs>
    <!-- Background Tray Shadow -->
    <filter id="board-shadow" x="-10%" y="-10%" width="120%" height="120%">
      <feDropShadow dx="0" dy="15" stdDeviation="15" flood-color="#000" flood-opacity="0.6"/>
    </filter>
    <filter id="cell-shadow" x="-20%" y="-20%" width="140%" height="140%">
      <feDropShadow dx="0" dy="2" stdDeviation="4" flood-color="#000" flood-opacity="0.8"/>
    </filter>
    <!-- Bulb ON Glow -->
    <filter id="glow" x="-50%" y="-50%" width="200%" height="200%">
      <feDropShadow dx="0" dy="0" stdDeviation="5" flood-color="#f59e0b" flood-opacity="0.5"/>
    </filter>
    <pattern id="grid8" width="56" height="56" patternUnits="userSpaceOnUse" patternTransform="translate(26, 26)">
      <rect width="50" height="50" rx="8" fill="#0f172a" opacity="0.6" />
    </pattern>
    <radialGradient id="glassGlow" cx="50%" cy="40%" r="50%">
      <stop offset="0%" stop-color="#fef3c7" stop-opacity="1" />
      <stop offset="40%" stop-color="#fde68a" stop-opacity="0.8" />
      <stop offset="100%" stop-color="#f59e0b" stop-opacity="0" />
    </radialGradient>
  </defs>

  <!-- Base Tray -->
  <g filter="url(#board-shadow)">
    <rect x="20" y="20" width="460" height="460" rx="30" fill="#1e293b" stroke="#334155" stroke-width="5" />
    <rect x="26" y="26" width="448" height="448" fill="url(#grid8)" opacity="0.3" />
  </g>

  <!-- Board Background -->
  <rect x="50" y="50" width="400" height="400" rx="16" fill="rgba(120, 53, 15, 0.2)" stroke="rgba(249, 115, 22, 0.2)" stroke-width="2" />

    <g transform="translate(62, 62)">
      <!-- Cell bg -->
      <rect width="68.8" height="68.8" rx="8" fill="rgba(30, 41, 59, 0.8)" stroke="rgba(51, 65, 85, 0.5)" stroke-width="1" filter="url(#cell-shadow)"/>
      
      
    <rect x="4" y="4" width="60.8" height="60.8" rx="32" fill="rgba(0,0,0,0.4)" />
  
      <g transform="translate(8.6, 8.6) scale(0.75)">
        <!-- Scale to 64x64 internal viewBox -->
        <g transform="scale(1.075)" opacity="0.6">
          
      <path d="M 32 4 A 18 18 0 0 0 14 22 C 14 31 22 36 25 42 L 39 42 C 42 36 50 31 50 22 A 18 18 0 0 0 32 4 Z" fill="#334155" stroke="#475569" stroke-width="1" />
      <path d="M 18 20 A 12 12 0 0 1 28 8" stroke="#ffffff" opacity="0.1" stroke-width="2" stroke-linecap="round" fill="none" />
      <path d="M 29 42 L 29 28 M 35 42 L 35 28" stroke="#1e293b" stroke-width="1.5" stroke-linecap="round" />
      <path d="M 29 28 L 30 21 L 31 25 L 32 21 L 33 25 L 34 21 L 35 28" stroke="#64748b" opacity="0.4" fill="none" stroke-width="1.5" stroke-linejoin="round" stroke-linecap="round" />
    
      <path d="M 25 42 L 39 42 L 37 54 L 27 54 Z" fill="#94a3b8" />
      <path d="M 39 42 L 37 54 L 32 54 L 32 42 Z" fill="#64748b" opacity="0.4" />
      <path d="M 24 45 Q 32 48 40 45" stroke="#64748b" stroke-width="2" fill="none" stroke-linecap="round" />
      <path d="M 25 49 Q 32 52 39 49" stroke="#64748b" stroke-width="2" fill="none" stroke-linecap="round" />
      <path d="M 26 53 Q 32 56 38 53" stroke="#64748b" stroke-width="2" fill="none" stroke-linecap="round" />
      <path d="M 28 54 L 36 54 C 36 58 34 60 32 60 C 30 60 28 58 28 54 Z" fill="#334155" />
      <path d="M 32 60 C 34 60 36 58 36 54 L 32 54 Z" fill="#1e293b" opacity="0.4" />
  
        </g>
      </g>
    </g>
  
    <g transform="translate(138.8, 62)">
      <!-- Cell bg -->
      <rect width="68.8" height="68.8" rx="8" fill="rgba(30, 41, 59, 0.8)" stroke="rgba(51, 65, 85, 0.5)" stroke-width="1" filter="url(#cell-shadow)"/>
      
    <rect width="68.8" height="68.8" rx="8" fill="rgba(245, 158, 11, 0.2)" stroke="rgba(251, 191, 36, 0.3)" stroke-width="2" filter="url(#glow)"/>
  
      
      <g transform="translate(0, 0) scale(1)">
        <!-- Scale to 64x64 internal viewBox -->
        <g transform="scale(1.075)" opacity="1">
          
      <circle cx="32" cy="22" r="22" fill="#fbbf24" opacity="0.3" filter="blur(4px)" />
      <path d="M 32 4 A 18 18 0 0 0 14 22 C 14 31 22 36 25 42 L 39 42 C 42 36 50 31 50 22 A 18 18 0 0 0 32 4 Z" fill="#fbbf24" stroke="#f59e0b" stroke-width="1" />
      <path d="M 32 4 A 18 18 0 0 0 14 22 C 14 31 22 36 25 42 L 39 42 C 42 36 50 31 50 22 A 18 18 0 0 0 32 4 Z" fill="url(#glassGlow)" />
      <path d="M 18 20 A 12 12 0 0 1 28 8" stroke="#ffffff" opacity="0.5" stroke-width="2" stroke-linecap="round" fill="none" />
      <path d="M 29 42 L 29 28 M 35 42 L 35 28" stroke="#d97706" stroke-width="1.5" stroke-linecap="round" />
      <path d="M 29 28 L 30 21 L 31 25 L 32 21 L 33 25 L 34 21 L 35 28" stroke="#fef3c7" fill="none" stroke-width="1.5" stroke-linejoin="round" stroke-linecap="round" />
    
      <path d="M 25 42 L 39 42 L 37 54 L 27 54 Z" fill="#94a3b8" />
      <path d="M 39 42 L 37 54 L 32 54 L 32 42 Z" fill="#64748b" opacity="0.4" />
      <path d="M 24 45 Q 32 48 40 45" stroke="#64748b" stroke-width="2" fill="none" stroke-linecap="round" />
      <path d="M 25 49 Q 32 52 39 49" stroke="#64748b" stroke-width="2" fill="none" stroke-linecap="round" />
      <path d="M 26 53 Q 32 56 38 53" stroke="#64748b" stroke-width="2" fill="none" stroke-linecap="round" />
      <path d="M 28 54 L 36 54 C 36 58 34 60 32 60 C 30 60 28 58 28 54 Z" fill="#334155" />
      <path d="M 32 60 C 34 60 36 58 36 54 L 32 54 Z" fill="#1e293b" opacity="0.4" />
  
        </g>
      </g>
    </g>
  
    <g transform="translate(215.6, 62)">
      <!-- Cell bg -->
      <rect width="68.8" height="68.8" rx="8" fill="rgba(30, 41, 59, 0.8)" stroke="rgba(51, 65, 85, 0.5)" stroke-width="1" filter="url(#cell-shadow)"/>
      
      
    <rect x="4" y="4" width="60.8" height="60.8" rx="32" fill="rgba(0,0,0,0.4)" />
  
      <g transform="translate(8.6, 8.6) scale(0.75)">
        <!-- Scale to 64x64 internal viewBox -->
        <g transform="scale(1.075)" opacity="0.6">
          
      <path d="M 32 4 A 18 18 0 0 0 14 22 C 14 31 22 36 25 42 L 39 42 C 42 36 50 31 50 22 A 18 18 0 0 0 32 4 Z" fill="#334155" stroke="#475569" stroke-width="1" />
      <path d="M 18 20 A 12 12 0 0 1 28 8" stroke="#ffffff" opacity="0.1" stroke-width="2" stroke-linecap="round" fill="none" />
      <path d="M 29 42 L 29 28 M 35 42 L 35 28" stroke="#1e293b" stroke-width="1.5" stroke-linecap="round" />
      <path d="M 29 28 L 30 21 L 31 25 L 32 21 L 33 25 L 34 21 L 35 28" stroke="#64748b" opacity="0.4" fill="none" stroke-width="1.5" stroke-linejoin="round" stroke-linecap="round" />
    
      <path d="M 25 42 L 39 42 L 37 54 L 27 54 Z" fill="#94a3b8" />
      <path d="M 39 42 L 37 54 L 32 54 L 32 42 Z" fill="#64748b" opacity="0.4" />
      <path d="M 24 45 Q 32 48 40 45" stroke="#64748b" stroke-width="2" fill="none" stroke-linecap="round" />
      <path d="M 25 49 Q 32 52 39 49" stroke="#64748b" stroke-width="2" fill="none" stroke-linecap="round" />
      <path d="M 26 53 Q 32 56 38 53" stroke="#64748b" stroke-width="2" fill="none" stroke-linecap="round" />
      <path d="M 28 54 L 36 54 C 36 58 34 60 32 60 C 30 60 28 58 28 54 Z" fill="#334155" />
      <path d="M 32 60 C 34 60 36 58 36 54 L 32 54 Z" fill="#1e293b" opacity="0.4" />
  
        </g>
      </g>
    </g>
  
    <g transform="translate(292.4, 62)">
      <!-- Cell bg -->
      <rect width="68.8" height="68.8" rx="8" fill="rgba(30, 41, 59, 0.8)" stroke="rgba(51, 65, 85, 0.5)" stroke-width="1" filter="url(#cell-shadow)"/>
      
    <rect width="68.8" height="68.8" rx="8" fill="rgba(245, 158, 11, 0.2)" stroke="rgba(251, 191, 36, 0.3)" stroke-width="2" filter="url(#glow)"/>
  
      
      <g transform="translate(0, 0) scale(1)">
        <!-- Scale to 64x64 internal viewBox -->
        <g transform="scale(1.075)" opacity="1">
          
      <circle cx="32" cy="22" r="22" fill="#fbbf24" opacity="0.3" filter="blur(4px)" />
      <path d="M 32 4 A 18 18 0 0 0 14 22 C 14 31 22 36 25 42 L 39 42 C 42 36 50 31 50 22 A 18 18 0 0 0 32 4 Z" fill="#fbbf24" stroke="#f59e0b" stroke-width="1" />
      <path d="M 32 4 A 18 18 0 0 0 14 22 C 14 31 22 36 25 42 L 39 42 C 42 36 50 31 50 22 A 18 18 0 0 0 32 4 Z" fill="url(#glassGlow)" />
      <path d="M 18 20 A 12 12 0 0 1 28 8" stroke="#ffffff" opacity="0.5" stroke-width="2" stroke-linecap="round" fill="none" />
      <path d="M 29 42 L 29 28 M 35 42 L 35 28" stroke="#d97706" stroke-width="1.5" stroke-linecap="round" />
      <path d="M 29 28 L 30 21 L 31 25 L 32 21 L 33 25 L 34 21 L 35 28" stroke="#fef3c7" fill="none" stroke-width="1.5" stroke-linejoin="round" stroke-linecap="round" />
    
      <path d="M 25 42 L 39 42 L 37 54 L 27 54 Z" fill="#94a3b8" />
      <path d="M 39 42 L 37 54 L 32 54 L 32 42 Z" fill="#64748b" opacity="0.4" />
      <path d="M 24 45 Q 32 48 40 45" stroke="#64748b" stroke-width="2" fill="none" stroke-linecap="round" />
      <path d="M 25 49 Q 32 52 39 49" stroke="#64748b" stroke-width="2" fill="none" stroke-linecap="round" />
      <path d="M 26 53 Q 32 56 38 53" stroke="#64748b" stroke-width="2" fill="none" stroke-linecap="round" />
      <path d="M 28 54 L 36 54 C 36 58 34 60 32 60 C 30 60 28 58 28 54 Z" fill="#334155" />
      <path d="M 32 60 C 34 60 36 58 36 54 L 32 54 Z" fill="#1e293b" opacity="0.4" />
  
        </g>
      </g>
    </g>
  
    <g transform="translate(369.2, 62)">
      <!-- Cell bg -->
      <rect width="68.8" height="68.8" rx="8" fill="rgba(30, 41, 59, 0.8)" stroke="rgba(51, 65, 85, 0.5)" stroke-width="1" filter="url(#cell-shadow)"/>
      
      
    <rect x="4" y="4" width="60.8" height="60.8" rx="32" fill="rgba(0,0,0,0.4)" />
  
      <g transform="translate(8.6, 8.6) scale(0.75)">
        <!-- Scale to 64x64 internal viewBox -->
        <g transform="scale(1.075)" opacity="0.6">
          
      <path d="M 32 4 A 18 18 0 0 0 14 22 C 14 31 22 36 25 42 L 39 42 C 42 36 50 31 50 22 A 18 18 0 0 0 32 4 Z" fill="#334155" stroke="#475569" stroke-width="1" />
      <path d="M 18 20 A 12 12 0 0 1 28 8" stroke="#ffffff" opacity="0.1" stroke-width="2" stroke-linecap="round" fill="none" />
      <path d="M 29 42 L 29 28 M 35 42 L 35 28" stroke="#1e293b" stroke-width="1.5" stroke-linecap="round" />
      <path d="M 29 28 L 30 21 L 31 25 L 32 21 L 33 25 L 34 21 L 35 28" stroke="#64748b" opacity="0.4" fill="none" stroke-width="1.5" stroke-linejoin="round" stroke-linecap="round" />
    
      <path d="M 25 42 L 39 42 L 37 54 L 27 54 Z" fill="#94a3b8" />
      <path d="M 39 42 L 37 54 L 32 54 L 32 42 Z" fill="#64748b" opacity="0.4" />
      <path d="M 24 45 Q 32 48 40 45" stroke="#64748b" stroke-width="2" fill="none" stroke-linecap="round" />
      <path d="M 25 49 Q 32 52 39 49" stroke="#64748b" stroke-width="2" fill="none" stroke-linecap="round" />
      <path d="M 26 53 Q 32 56 38 53" stroke="#64748b" stroke-width="2" fill="none" stroke-linecap="round" />
      <path d="M 28 54 L 36 54 C 36 58 34 60 32 60 C 30 60 28 58 28 54 Z" fill="#334155" />
      <path d="M 32 60 C 34 60 36 58 36 54 L 32 54 Z" fill="#1e293b" opacity="0.4" />
  
        </g>
      </g>
    </g>
  
    <g transform="translate(62, 138.8)">
      <!-- Cell bg -->
      <rect width="68.8" height="68.8" rx="8" fill="rgba(30, 41, 59, 0.8)" stroke="rgba(51, 65, 85, 0.5)" stroke-width="1" filter="url(#cell-shadow)"/>
      
    <rect width="68.8" height="68.8" rx="8" fill="rgba(245, 158, 11, 0.2)" stroke="rgba(251, 191, 36, 0.3)" stroke-width="2" filter="url(#glow)"/>
  
      
      <g transform="translate(0, 0) scale(1)">
        <!-- Scale to 64x64 internal viewBox -->
        <g transform="scale(1.075)" opacity="1">
          
      <circle cx="32" cy="22" r="22" fill="#fbbf24" opacity="0.3" filter="blur(4px)" />
      <path d="M 32 4 A 18 18 0 0 0 14 22 C 14 31 22 36 25 42 L 39 42 C 42 36 50 31 50 22 A 18 18 0 0 0 32 4 Z" fill="#fbbf24" stroke="#f59e0b" stroke-width="1" />
      <path d="M 32 4 A 18 18 0 0 0 14 22 C 14 31 22 36 25 42 L 39 42 C 42 36 50 31 50 22 A 18 18 0 0 0 32 4 Z" fill="url(#glassGlow)" />
      <path d="M 18 20 A 12 12 0 0 1 28 8" stroke="#ffffff" opacity="0.5" stroke-width="2" stroke-linecap="round" fill="none" />
      <path d="M 29 42 L 29 28 M 35 42 L 35 28" stroke="#d97706" stroke-width="1.5" stroke-linecap="round" />
      <path d="M 29 28 L 30 21 L 31 25 L 32 21 L 33 25 L 34 21 L 35 28" stroke="#fef3c7" fill="none" stroke-width="1.5" stroke-linejoin="round" stroke-linecap="round" />
    
      <path d="M 25 42 L 39 42 L 37 54 L 27 54 Z" fill="#94a3b8" />
      <path d="M 39 42 L 37 54 L 32 54 L 32 42 Z" fill="#64748b" opacity="0.4" />
      <path d="M 24 45 Q 32 48 40 45" stroke="#64748b" stroke-width="2" fill="none" stroke-linecap="round" />
      <path d="M 25 49 Q 32 52 39 49" stroke="#64748b" stroke-width="2" fill="none" stroke-linecap="round" />
      <path d="M 26 53 Q 32 56 38 53" stroke="#64748b" stroke-width="2" fill="none" stroke-linecap="round" />
      <path d="M 28 54 L 36 54 C 36 58 34 60 32 60 C 30 60 28 58 28 54 Z" fill="#334155" />
      <path d="M 32 60 C 34 60 36 58 36 54 L 32 54 Z" fill="#1e293b" opacity="0.4" />
  
        </g>
      </g>
    </g>
  
    <g transform="translate(138.8, 138.8)">
      <!-- Cell bg -->
      <rect width="68.8" height="68.8" rx="8" fill="rgba(30, 41, 59, 0.8)" stroke="rgba(51, 65, 85, 0.5)" stroke-width="1" filter="url(#cell-shadow)"/>
      
      
    <rect x="4" y="4" width="60.8" height="60.8" rx="32" fill="rgba(0,0,0,0.4)" />
  
      <g transform="translate(8.6, 8.6) scale(0.75)">
        <!-- Scale to 64x64 internal viewBox -->
        <g transform="scale(1.075)" opacity="0.6">
          
      <path d="M 32 4 A 18 18 0 0 0 14 22 C 14 31 22 36 25 42 L 39 42 C 42 36 50 31 50 22 A 18 18 0 0 0 32 4 Z" fill="#334155" stroke="#475569" stroke-width="1" />
      <path d="M 18 20 A 12 12 0 0 1 28 8" stroke="#ffffff" opacity="0.1" stroke-width="2" stroke-linecap="round" fill="none" />
      <path d="M 29 42 L 29 28 M 35 42 L 35 28" stroke="#1e293b" stroke-width="1.5" stroke-linecap="round" />
      <path d="M 29 28 L 30 21 L 31 25 L 32 21 L 33 25 L 34 21 L 35 28" stroke="#64748b" opacity="0.4" fill="none" stroke-width="1.5" stroke-linejoin="round" stroke-linecap="round" />
    
      <path d="M 25 42 L 39 42 L 37 54 L 27 54 Z" fill="#94a3b8" />
      <path d="M 39 42 L 37 54 L 32 54 L 32 42 Z" fill="#64748b" opacity="0.4" />
      <path d="M 24 45 Q 32 48 40 45" stroke="#64748b" stroke-width="2" fill="none" stroke-linecap="round" />
      <path d="M 25 49 Q 32 52 39 49" stroke="#64748b" stroke-width="2" fill="none" stroke-linecap="round" />
      <path d="M 26 53 Q 32 56 38 53" stroke="#64748b" stroke-width="2" fill="none" stroke-linecap="round" />
      <path d="M 28 54 L 36 54 C 36 58 34 60 32 60 C 30 60 28 58 28 54 Z" fill="#334155" />
      <path d="M 32 60 C 34 60 36 58 36 54 L 32 54 Z" fill="#1e293b" opacity="0.4" />
  
        </g>
      </g>
    </g>
  
    <g transform="translate(215.6, 138.8)">
      <!-- Cell bg -->
      <rect width="68.8" height="68.8" rx="8" fill="rgba(30, 41, 59, 0.8)" stroke="rgba(51, 65, 85, 0.5)" stroke-width="1" filter="url(#cell-shadow)"/>
      
    <rect width="68.8" height="68.8" rx="8" fill="rgba(245, 158, 11, 0.2)" stroke="rgba(251, 191, 36, 0.3)" stroke-width="2" filter="url(#glow)"/>
  
      
      <g transform="translate(0, 0) scale(1)">
        <!-- Scale to 64x64 internal viewBox -->
        <g transform="scale(1.075)" opacity="1">
          
      <circle cx="32" cy="22" r="22" fill="#fbbf24" opacity="0.3" filter="blur(4px)" />
      <path d="M 32 4 A 18 18 0 0 0 14 22 C 14 31 22 36 25 42 L 39 42 C 42 36 50 31 50 22 A 18 18 0 0 0 32 4 Z" fill="#fbbf24" stroke="#f59e0b" stroke-width="1" />
      <path d="M 32 4 A 18 18 0 0 0 14 22 C 14 31 22 36 25 42 L 39 42 C 42 36 50 31 50 22 A 18 18 0 0 0 32 4 Z" fill="url(#glassGlow)" />
      <path d="M 18 20 A 12 12 0 0 1 28 8" stroke="#ffffff" opacity="0.5" stroke-width="2" stroke-linecap="round" fill="none" />
      <path d="M 29 42 L 29 28 M 35 42 L 35 28" stroke="#d97706" stroke-width="1.5" stroke-linecap="round" />
      <path d="M 29 28 L 30 21 L 31 25 L 32 21 L 33 25 L 34 21 L 35 28" stroke="#fef3c7" fill="none" stroke-width="1.5" stroke-linejoin="round" stroke-linecap="round" />
    
      <path d="M 25 42 L 39 42 L 37 54 L 27 54 Z" fill="#94a3b8" />
      <path d="M 39 42 L 37 54 L 32 54 L 32 42 Z" fill="#64748b" opacity="0.4" />
      <path d="M 24 45 Q 32 48 40 45" stroke="#64748b" stroke-width="2" fill="none" stroke-linecap="round" />
      <path d="M 25 49 Q 32 52 39 49" stroke="#64748b" stroke-width="2" fill="none" stroke-linecap="round" />
      <path d="M 26 53 Q 32 56 38 53" stroke="#64748b" stroke-width="2" fill="none" stroke-linecap="round" />
      <path d="M 28 54 L 36 54 C 36 58 34 60 32 60 C 30 60 28 58 28 54 Z" fill="#334155" />
      <path d="M 32 60 C 34 60 36 58 36 54 L 32 54 Z" fill="#1e293b" opacity="0.4" />
  
        </g>
      </g>
    </g>
  
    <g transform="translate(292.4, 138.8)">
      <!-- Cell bg -->
      <rect width="68.8" height="68.8" rx="8" fill="rgba(30, 41, 59, 0.8)" stroke="rgba(51, 65, 85, 0.5)" stroke-width="1" filter="url(#cell-shadow)"/>
      
      
    <rect x="4" y="4" width="60.8" height="60.8" rx="32" fill="rgba(0,0,0,0.4)" />
  
      <g transform="translate(8.6, 8.6) scale(0.75)">
        <!-- Scale to 64x64 internal viewBox -->
        <g transform="scale(1.075)" opacity="0.6">
          
      <path d="M 32 4 A 18 18 0 0 0 14 22 C 14 31 22 36 25 42 L 39 42 C 42 36 50 31 50 22 A 18 18 0 0 0 32 4 Z" fill="#334155" stroke="#475569" stroke-width="1" />
      <path d="M 18 20 A 12 12 0 0 1 28 8" stroke="#ffffff" opacity="0.1" stroke-width="2" stroke-linecap="round" fill="none" />
      <path d="M 29 42 L 29 28 M 35 42 L 35 28" stroke="#1e293b" stroke-width="1.5" stroke-linecap="round" />
      <path d="M 29 28 L 30 21 L 31 25 L 32 21 L 33 25 L 34 21 L 35 28" stroke="#64748b" opacity="0.4" fill="none" stroke-width="1.5" stroke-linejoin="round" stroke-linecap="round" />
    
      <path d="M 25 42 L 39 42 L 37 54 L 27 54 Z" fill="#94a3b8" />
      <path d="M 39 42 L 37 54 L 32 54 L 32 42 Z" fill="#64748b" opacity="0.4" />
      <path d="M 24 45 Q 32 48 40 45" stroke="#64748b" stroke-width="2" fill="none" stroke-linecap="round" />
      <path d="M 25 49 Q 32 52 39 49" stroke="#64748b" stroke-width="2" fill="none" stroke-linecap="round" />
      <path d="M 26 53 Q 32 56 38 53" stroke="#64748b" stroke-width="2" fill="none" stroke-linecap="round" />
      <path d="M 28 54 L 36 54 C 36 58 34 60 32 60 C 30 60 28 58 28 54 Z" fill="#334155" />
      <path d="M 32 60 C 34 60 36 58 36 54 L 32 54 Z" fill="#1e293b" opacity="0.4" />
  
        </g>
      </g>
    </g>
  
    <g transform="translate(369.2, 138.8)">
      <!-- Cell bg -->
      <rect width="68.8" height="68.8" rx="8" fill="rgba(30, 41, 59, 0.8)" stroke="rgba(51, 65, 85, 0.5)" stroke-width="1" filter="url(#cell-shadow)"/>
      
    <rect width="68.8" height="68.8" rx="8" fill="rgba(245, 158, 11, 0.2)" stroke="rgba(251, 191, 36, 0.3)" stroke-width="2" filter="url(#glow)"/>
  
      
      <g transform="translate(0, 0) scale(1)">
        <!-- Scale to 64x64 internal viewBox -->
        <g transform="scale(1.075)" opacity="1">
          
      <circle cx="32" cy="22" r="22" fill="#fbbf24" opacity="0.3" filter="blur(4px)" />
      <path d="M 32 4 A 18 18 0 0 0 14 22 C 14 31 22 36 25 42 L 39 42 C 42 36 50 31 50 22 A 18 18 0 0 0 32 4 Z" fill="#fbbf24" stroke="#f59e0b" stroke-width="1" />
      <path d="M 32 4 A 18 18 0 0 0 14 22 C 14 31 22 36 25 42 L 39 42 C 42 36 50 31 50 22 A 18 18 0 0 0 32 4 Z" fill="url(#glassGlow)" />
      <path d="M 18 20 A 12 12 0 0 1 28 8" stroke="#ffffff" opacity="0.5" stroke-width="2" stroke-linecap="round" fill="none" />
      <path d="M 29 42 L 29 28 M 35 42 L 35 28" stroke="#d97706" stroke-width="1.5" stroke-linecap="round" />
      <path d="M 29 28 L 30 21 L 31 25 L 32 21 L 33 25 L 34 21 L 35 28" stroke="#fef3c7" fill="none" stroke-width="1.5" stroke-linejoin="round" stroke-linecap="round" />
    
      <path d="M 25 42 L 39 42 L 37 54 L 27 54 Z" fill="#94a3b8" />
      <path d="M 39 42 L 37 54 L 32 54 L 32 42 Z" fill="#64748b" opacity="0.4" />
      <path d="M 24 45 Q 32 48 40 45" stroke="#64748b" stroke-width="2" fill="none" stroke-linecap="round" />
      <path d="M 25 49 Q 32 52 39 49" stroke="#64748b" stroke-width="2" fill="none" stroke-linecap="round" />
      <path d="M 26 53 Q 32 56 38 53" stroke="#64748b" stroke-width="2" fill="none" stroke-linecap="round" />
      <path d="M 28 54 L 36 54 C 36 58 34 60 32 60 C 30 60 28 58 28 54 Z" fill="#334155" />
      <path d="M 32 60 C 34 60 36 58 36 54 L 32 54 Z" fill="#1e293b" opacity="0.4" />
  
        </g>
      </g>
    </g>
  
    <g transform="translate(62, 215.6)">
      <!-- Cell bg -->
      <rect width="68.8" height="68.8" rx="8" fill="rgba(30, 41, 59, 0.8)" stroke="rgba(51, 65, 85, 0.5)" stroke-width="1" filter="url(#cell-shadow)"/>
      
      
    <rect x="4" y="4" width="60.8" height="60.8" rx="32" fill="rgba(0,0,0,0.4)" />
  
      <g transform="translate(8.6, 8.6) scale(0.75)">
        <!-- Scale to 64x64 internal viewBox -->
        <g transform="scale(1.075)" opacity="0.6">
          
      <path d="M 32 4 A 18 18 0 0 0 14 22 C 14 31 22 36 25 42 L 39 42 C 42 36 50 31 50 22 A 18 18 0 0 0 32 4 Z" fill="#334155" stroke="#475569" stroke-width="1" />
      <path d="M 18 20 A 12 12 0 0 1 28 8" stroke="#ffffff" opacity="0.1" stroke-width="2" stroke-linecap="round" fill="none" />
      <path d="M 29 42 L 29 28 M 35 42 L 35 28" stroke="#1e293b" stroke-width="1.5" stroke-linecap="round" />
      <path d="M 29 28 L 30 21 L 31 25 L 32 21 L 33 25 L 34 21 L 35 28" stroke="#64748b" opacity="0.4" fill="none" stroke-width="1.5" stroke-linejoin="round" stroke-linecap="round" />
    
      <path d="M 25 42 L 39 42 L 37 54 L 27 54 Z" fill="#94a3b8" />
      <path d="M 39 42 L 37 54 L 32 54 L 32 42 Z" fill="#64748b" opacity="0.4" />
      <path d="M 24 45 Q 32 48 40 45" stroke="#64748b" stroke-width="2" fill="none" stroke-linecap="round" />
      <path d="M 25 49 Q 32 52 39 49" stroke="#64748b" stroke-width="2" fill="none" stroke-linecap="round" />
      <path d="M 26 53 Q 32 56 38 53" stroke="#64748b" stroke-width="2" fill="none" stroke-linecap="round" />
      <path d="M 28 54 L 36 54 C 36 58 34 60 32 60 C 30 60 28 58 28 54 Z" fill="#334155" />
      <path d="M 32 60 C 34 60 36 58 36 54 L 32 54 Z" fill="#1e293b" opacity="0.4" />
  
        </g>
      </g>
    </g>
  
    <g transform="translate(138.8, 215.6)">
      <!-- Cell bg -->
      <rect width="68.8" height="68.8" rx="8" fill="rgba(30, 41, 59, 0.8)" stroke="rgba(51, 65, 85, 0.5)" stroke-width="1" filter="url(#cell-shadow)"/>
      
    <rect width="68.8" height="68.8" rx="8" fill="rgba(245, 158, 11, 0.2)" stroke="rgba(251, 191, 36, 0.3)" stroke-width="2" filter="url(#glow)"/>
  
      
      <g transform="translate(0, 0) scale(1)">
        <!-- Scale to 64x64 internal viewBox -->
        <g transform="scale(1.075)" opacity="1">
          
      <circle cx="32" cy="22" r="22" fill="#fbbf24" opacity="0.3" filter="blur(4px)" />
      <path d="M 32 4 A 18 18 0 0 0 14 22 C 14 31 22 36 25 42 L 39 42 C 42 36 50 31 50 22 A 18 18 0 0 0 32 4 Z" fill="#fbbf24" stroke="#f59e0b" stroke-width="1" />
      <path d="M 32 4 A 18 18 0 0 0 14 22 C 14 31 22 36 25 42 L 39 42 C 42 36 50 31 50 22 A 18 18 0 0 0 32 4 Z" fill="url(#glassGlow)" />
      <path d="M 18 20 A 12 12 0 0 1 28 8" stroke="#ffffff" opacity="0.5" stroke-width="2" stroke-linecap="round" fill="none" />
      <path d="M 29 42 L 29 28 M 35 42 L 35 28" stroke="#d97706" stroke-width="1.5" stroke-linecap="round" />
      <path d="M 29 28 L 30 21 L 31 25 L 32 21 L 33 25 L 34 21 L 35 28" stroke="#fef3c7" fill="none" stroke-width="1.5" stroke-linejoin="round" stroke-linecap="round" />
    
      <path d="M 25 42 L 39 42 L 37 54 L 27 54 Z" fill="#94a3b8" />
      <path d="M 39 42 L 37 54 L 32 54 L 32 42 Z" fill="#64748b" opacity="0.4" />
      <path d="M 24 45 Q 32 48 40 45" stroke="#64748b" stroke-width="2" fill="none" stroke-linecap="round" />
      <path d="M 25 49 Q 32 52 39 49" stroke="#64748b" stroke-width="2" fill="none" stroke-linecap="round" />
      <path d="M 26 53 Q 32 56 38 53" stroke="#64748b" stroke-width="2" fill="none" stroke-linecap="round" />
      <path d="M 28 54 L 36 54 C 36 58 34 60 32 60 C 30 60 28 58 28 54 Z" fill="#334155" />
      <path d="M 32 60 C 34 60 36 58 36 54 L 32 54 Z" fill="#1e293b" opacity="0.4" />
  
        </g>
      </g>
    </g>
  
    <g transform="translate(215.6, 215.6)">
      <!-- Cell bg -->
      <rect width="68.8" height="68.8" rx="8" fill="rgba(30, 41, 59, 0.8)" stroke="rgba(51, 65, 85, 0.5)" stroke-width="1" filter="url(#cell-shadow)"/>
      
    <rect width="68.8" height="68.8" rx="8" fill="rgba(245, 158, 11, 0.2)" stroke="rgba(251, 191, 36, 0.3)" stroke-width="2" filter="url(#glow)"/>
  
      
      <g transform="translate(0, 0) scale(1)">
        <!-- Scale to 64x64 internal viewBox -->
        <g transform="scale(1.075)" opacity="1">
          
      <circle cx="32" cy="22" r="22" fill="#fbbf24" opacity="0.3" filter="blur(4px)" />
      <path d="M 32 4 A 18 18 0 0 0 14 22 C 14 31 22 36 25 42 L 39 42 C 42 36 50 31 50 22 A 18 18 0 0 0 32 4 Z" fill="#fbbf24" stroke="#f59e0b" stroke-width="1" />
      <path d="M 32 4 A 18 18 0 0 0 14 22 C 14 31 22 36 25 42 L 39 42 C 42 36 50 31 50 22 A 18 18 0 0 0 32 4 Z" fill="url(#glassGlow)" />
      <path d="M 18 20 A 12 12 0 0 1 28 8" stroke="#ffffff" opacity="0.5" stroke-width="2" stroke-linecap="round" fill="none" />
      <path d="M 29 42 L 29 28 M 35 42 L 35 28" stroke="#d97706" stroke-width="1.5" stroke-linecap="round" />
      <path d="M 29 28 L 30 21 L 31 25 L 32 21 L 33 25 L 34 21 L 35 28" stroke="#fef3c7" fill="none" stroke-width="1.5" stroke-linejoin="round" stroke-linecap="round" />
    
      <path d="M 25 42 L 39 42 L 37 54 L 27 54 Z" fill="#94a3b8" />
      <path d="M 39 42 L 37 54 L 32 54 L 32 42 Z" fill="#64748b" opacity="0.4" />
      <path d="M 24 45 Q 32 48 40 45" stroke="#64748b" stroke-width="2" fill="none" stroke-linecap="round" />
      <path d="M 25 49 Q 32 52 39 49" stroke="#64748b" stroke-width="2" fill="none" stroke-linecap="round" />
      <path d="M 26 53 Q 32 56 38 53" stroke="#64748b" stroke-width="2" fill="none" stroke-linecap="round" />
      <path d="M 28 54 L 36 54 C 36 58 34 60 32 60 C 30 60 28 58 28 54 Z" fill="#334155" />
      <path d="M 32 60 C 34 60 36 58 36 54 L 32 54 Z" fill="#1e293b" opacity="0.4" />
  
        </g>
      </g>
    </g>
  
    <g transform="translate(292.4, 215.6)">
      <!-- Cell bg -->
      <rect width="68.8" height="68.8" rx="8" fill="rgba(30, 41, 59, 0.8)" stroke="rgba(51, 65, 85, 0.5)" stroke-width="1" filter="url(#cell-shadow)"/>
      
    <rect width="68.8" height="68.8" rx="8" fill="rgba(245, 158, 11, 0.2)" stroke="rgba(251, 191, 36, 0.3)" stroke-width="2" filter="url(#glow)"/>
  
      
      <g transform="translate(0, 0) scale(1)">
        <!-- Scale to 64x64 internal viewBox -->
        <g transform="scale(1.075)" opacity="1">
          
      <circle cx="32" cy="22" r="22" fill="#fbbf24" opacity="0.3" filter="blur(4px)" />
      <path d="M 32 4 A 18 18 0 0 0 14 22 C 14 31 22 36 25 42 L 39 42 C 42 36 50 31 50 22 A 18 18 0 0 0 32 4 Z" fill="#fbbf24" stroke="#f59e0b" stroke-width="1" />
      <path d="M 32 4 A 18 18 0 0 0 14 22 C 14 31 22 36 25 42 L 39 42 C 42 36 50 31 50 22 A 18 18 0 0 0 32 4 Z" fill="url(#glassGlow)" />
      <path d="M 18 20 A 12 12 0 0 1 28 8" stroke="#ffffff" opacity="0.5" stroke-width="2" stroke-linecap="round" fill="none" />
      <path d="M 29 42 L 29 28 M 35 42 L 35 28" stroke="#d97706" stroke-width="1.5" stroke-linecap="round" />
      <path d="M 29 28 L 30 21 L 31 25 L 32 21 L 33 25 L 34 21 L 35 28" stroke="#fef3c7" fill="none" stroke-width="1.5" stroke-linejoin="round" stroke-linecap="round" />
    
      <path d="M 25 42 L 39 42 L 37 54 L 27 54 Z" fill="#94a3b8" />
      <path d="M 39 42 L 37 54 L 32 54 L 32 42 Z" fill="#64748b" opacity="0.4" />
      <path d="M 24 45 Q 32 48 40 45" stroke="#64748b" stroke-width="2" fill="none" stroke-linecap="round" />
      <path d="M 25 49 Q 32 52 39 49" stroke="#64748b" stroke-width="2" fill="none" stroke-linecap="round" />
      <path d="M 26 53 Q 32 56 38 53" stroke="#64748b" stroke-width="2" fill="none" stroke-linecap="round" />
      <path d="M 28 54 L 36 54 C 36 58 34 60 32 60 C 30 60 28 58 28 54 Z" fill="#334155" />
      <path d="M 32 60 C 34 60 36 58 36 54 L 32 54 Z" fill="#1e293b" opacity="0.4" />
  
        </g>
      </g>
    </g>
  
    <g transform="translate(369.2, 215.6)">
      <!-- Cell bg -->
      <rect width="68.8" height="68.8" rx="8" fill="rgba(30, 41, 59, 0.8)" stroke="rgba(51, 65, 85, 0.5)" stroke-width="1" filter="url(#cell-shadow)"/>
      
      
    <rect x="4" y="4" width="60.8" height="60.8" rx="32" fill="rgba(0,0,0,0.4)" />
  
      <g transform="translate(8.6, 8.6) scale(0.75)">
        <!-- Scale to 64x64 internal viewBox -->
        <g transform="scale(1.075)" opacity="0.6">
          
      <path d="M 32 4 A 18 18 0 0 0 14 22 C 14 31 22 36 25 42 L 39 42 C 42 36 50 31 50 22 A 18 18 0 0 0 32 4 Z" fill="#334155" stroke="#475569" stroke-width="1" />
      <path d="M 18 20 A 12 12 0 0 1 28 8" stroke="#ffffff" opacity="0.1" stroke-width="2" stroke-linecap="round" fill="none" />
      <path d="M 29 42 L 29 28 M 35 42 L 35 28" stroke="#1e293b" stroke-width="1.5" stroke-linecap="round" />
      <path d="M 29 28 L 30 21 L 31 25 L 32 21 L 33 25 L 34 21 L 35 28" stroke="#64748b" opacity="0.4" fill="none" stroke-width="1.5" stroke-linejoin="round" stroke-linecap="round" />
    
      <path d="M 25 42 L 39 42 L 37 54 L 27 54 Z" fill="#94a3b8" />
      <path d="M 39 42 L 37 54 L 32 54 L 32 42 Z" fill="#64748b" opacity="0.4" />
      <path d="M 24 45 Q 32 48 40 45" stroke="#64748b" stroke-width="2" fill="none" stroke-linecap="round" />
      <path d="M 25 49 Q 32 52 39 49" stroke="#64748b" stroke-width="2" fill="none" stroke-linecap="round" />
      <path d="M 26 53 Q 32 56 38 53" stroke="#64748b" stroke-width="2" fill="none" stroke-linecap="round" />
      <path d="M 28 54 L 36 54 C 36 58 34 60 32 60 C 30 60 28 58 28 54 Z" fill="#334155" />
      <path d="M 32 60 C 34 60 36 58 36 54 L 32 54 Z" fill="#1e293b" opacity="0.4" />
  
        </g>
      </g>
    </g>
  
    <g transform="translate(62, 292.4)">
      <!-- Cell bg -->
      <rect width="68.8" height="68.8" rx="8" fill="rgba(30, 41, 59, 0.8)" stroke="rgba(51, 65, 85, 0.5)" stroke-width="1" filter="url(#cell-shadow)"/>
      
    <rect width="68.8" height="68.8" rx="8" fill="rgba(245, 158, 11, 0.2)" stroke="rgba(251, 191, 36, 0.3)" stroke-width="2" filter="url(#glow)"/>
  
      
      <g transform="translate(0, 0) scale(1)">
        <!-- Scale to 64x64 internal viewBox -->
        <g transform="scale(1.075)" opacity="1">
          
      <circle cx="32" cy="22" r="22" fill="#fbbf24" opacity="0.3" filter="blur(4px)" />
      <path d="M 32 4 A 18 18 0 0 0 14 22 C 14 31 22 36 25 42 L 39 42 C 42 36 50 31 50 22 A 18 18 0 0 0 32 4 Z" fill="#fbbf24" stroke="#f59e0b" stroke-width="1" />
      <path d="M 32 4 A 18 18 0 0 0 14 22 C 14 31 22 36 25 42 L 39 42 C 42 36 50 31 50 22 A 18 18 0 0 0 32 4 Z" fill="url(#glassGlow)" />
      <path d="M 18 20 A 12 12 0 0 1 28 8" stroke="#ffffff" opacity="0.5" stroke-width="2" stroke-linecap="round" fill="none" />
      <path d="M 29 42 L 29 28 M 35 42 L 35 28" stroke="#d97706" stroke-width="1.5" stroke-linecap="round" />
      <path d="M 29 28 L 30 21 L 31 25 L 32 21 L 33 25 L 34 21 L 35 28" stroke="#fef3c7" fill="none" stroke-width="1.5" stroke-linejoin="round" stroke-linecap="round" />
    
      <path d="M 25 42 L 39 42 L 37 54 L 27 54 Z" fill="#94a3b8" />
      <path d="M 39 42 L 37 54 L 32 54 L 32 42 Z" fill="#64748b" opacity="0.4" />
      <path d="M 24 45 Q 32 48 40 45" stroke="#64748b" stroke-width="2" fill="none" stroke-linecap="round" />
      <path d="M 25 49 Q 32 52 39 49" stroke="#64748b" stroke-width="2" fill="none" stroke-linecap="round" />
      <path d="M 26 53 Q 32 56 38 53" stroke="#64748b" stroke-width="2" fill="none" stroke-linecap="round" />
      <path d="M 28 54 L 36 54 C 36 58 34 60 32 60 C 30 60 28 58 28 54 Z" fill="#334155" />
      <path d="M 32 60 C 34 60 36 58 36 54 L 32 54 Z" fill="#1e293b" opacity="0.4" />
  
        </g>
      </g>
    </g>
  
    <g transform="translate(138.8, 292.4)">
      <!-- Cell bg -->
      <rect width="68.8" height="68.8" rx="8" fill="rgba(30, 41, 59, 0.8)" stroke="rgba(51, 65, 85, 0.5)" stroke-width="1" filter="url(#cell-shadow)"/>
      
      
    <rect x="4" y="4" width="60.8" height="60.8" rx="32" fill="rgba(0,0,0,0.4)" />
  
      <g transform="translate(8.6, 8.6) scale(0.75)">
        <!-- Scale to 64x64 internal viewBox -->
        <g transform="scale(1.075)" opacity="0.6">
          
      <path d="M 32 4 A 18 18 0 0 0 14 22 C 14 31 22 36 25 42 L 39 42 C 42 36 50 31 50 22 A 18 18 0 0 0 32 4 Z" fill="#334155" stroke="#475569" stroke-width="1" />
      <path d="M 18 20 A 12 12 0 0 1 28 8" stroke="#ffffff" opacity="0.1" stroke-width="2" stroke-linecap="round" fill="none" />
      <path d="M 29 42 L 29 28 M 35 42 L 35 28" stroke="#1e293b" stroke-width="1.5" stroke-linecap="round" />
      <path d="M 29 28 L 30 21 L 31 25 L 32 21 L 33 25 L 34 21 L 35 28" stroke="#64748b" opacity="0.4" fill="none" stroke-width="1.5" stroke-linejoin="round" stroke-linecap="round" />
    
      <path d="M 25 42 L 39 42 L 37 54 L 27 54 Z" fill="#94a3b8" />
      <path d="M 39 42 L 37 54 L 32 54 L 32 42 Z" fill="#64748b" opacity="0.4" />
      <path d="M 24 45 Q 32 48 40 45" stroke="#64748b" stroke-width="2" fill="none" stroke-linecap="round" />
      <path d="M 25 49 Q 32 52 39 49" stroke="#64748b" stroke-width="2" fill="none" stroke-linecap="round" />
      <path d="M 26 53 Q 32 56 38 53" stroke="#64748b" stroke-width="2" fill="none" stroke-linecap="round" />
      <path d="M 28 54 L 36 54 C 36 58 34 60 32 60 C 30 60 28 58 28 54 Z" fill="#334155" />
      <path d="M 32 60 C 34 60 36 58 36 54 L 32 54 Z" fill="#1e293b" opacity="0.4" />
  
        </g>
      </g>
    </g>
  
    <g transform="translate(215.6, 292.4)">
      <!-- Cell bg -->
      <rect width="68.8" height="68.8" rx="8" fill="rgba(30, 41, 59, 0.8)" stroke="rgba(51, 65, 85, 0.5)" stroke-width="1" filter="url(#cell-shadow)"/>
      
    <rect width="68.8" height="68.8" rx="8" fill="rgba(245, 158, 11, 0.2)" stroke="rgba(251, 191, 36, 0.3)" stroke-width="2" filter="url(#glow)"/>
  
      
      <g transform="translate(0, 0) scale(1)">
        <!-- Scale to 64x64 internal viewBox -->
        <g transform="scale(1.075)" opacity="1">
          
      <circle cx="32" cy="22" r="22" fill="#fbbf24" opacity="0.3" filter="blur(4px)" />
      <path d="M 32 4 A 18 18 0 0 0 14 22 C 14 31 22 36 25 42 L 39 42 C 42 36 50 31 50 22 A 18 18 0 0 0 32 4 Z" fill="#fbbf24" stroke="#f59e0b" stroke-width="1" />
      <path d="M 32 4 A 18 18 0 0 0 14 22 C 14 31 22 36 25 42 L 39 42 C 42 36 50 31 50 22 A 18 18 0 0 0 32 4 Z" fill="url(#glassGlow)" />
      <path d="M 18 20 A 12 12 0 0 1 28 8" stroke="#ffffff" opacity="0.5" stroke-width="2" stroke-linecap="round" fill="none" />
      <path d="M 29 42 L 29 28 M 35 42 L 35 28" stroke="#d97706" stroke-width="1.5" stroke-linecap="round" />
      <path d="M 29 28 L 30 21 L 31 25 L 32 21 L 33 25 L 34 21 L 35 28" stroke="#fef3c7" fill="none" stroke-width="1.5" stroke-linejoin="round" stroke-linecap="round" />
    
      <path d="M 25 42 L 39 42 L 37 54 L 27 54 Z" fill="#94a3b8" />
      <path d="M 39 42 L 37 54 L 32 54 L 32 42 Z" fill="#64748b" opacity="0.4" />
      <path d="M 24 45 Q 32 48 40 45" stroke="#64748b" stroke-width="2" fill="none" stroke-linecap="round" />
      <path d="M 25 49 Q 32 52 39 49" stroke="#64748b" stroke-width="2" fill="none" stroke-linecap="round" />
      <path d="M 26 53 Q 32 56 38 53" stroke="#64748b" stroke-width="2" fill="none" stroke-linecap="round" />
      <path d="M 28 54 L 36 54 C 36 58 34 60 32 60 C 30 60 28 58 28 54 Z" fill="#334155" />
      <path d="M 32 60 C 34 60 36 58 36 54 L 32 54 Z" fill="#1e293b" opacity="0.4" />
  
        </g>
      </g>
    </g>
  
    <g transform="translate(292.4, 292.4)">
      <!-- Cell bg -->
      <rect width="68.8" height="68.8" rx="8" fill="rgba(30, 41, 59, 0.8)" stroke="rgba(51, 65, 85, 0.5)" stroke-width="1" filter="url(#cell-shadow)"/>
      
      
    <rect x="4" y="4" width="60.8" height="60.8" rx="32" fill="rgba(0,0,0,0.4)" />
  
      <g transform="translate(8.6, 8.6) scale(0.75)">
        <!-- Scale to 64x64 internal viewBox -->
        <g transform="scale(1.075)" opacity="0.6">
          
      <path d="M 32 4 A 18 18 0 0 0 14 22 C 14 31 22 36 25 42 L 39 42 C 42 36 50 31 50 22 A 18 18 0 0 0 32 4 Z" fill="#334155" stroke="#475569" stroke-width="1" />
      <path d="M 18 20 A 12 12 0 0 1 28 8" stroke="#ffffff" opacity="0.1" stroke-width="2" stroke-linecap="round" fill="none" />
      <path d="M 29 42 L 29 28 M 35 42 L 35 28" stroke="#1e293b" stroke-width="1.5" stroke-linecap="round" />
      <path d="M 29 28 L 30 21 L 31 25 L 32 21 L 33 25 L 34 21 L 35 28" stroke="#64748b" opacity="0.4" fill="none" stroke-width="1.5" stroke-linejoin="round" stroke-linecap="round" />
    
      <path d="M 25 42 L 39 42 L 37 54 L 27 54 Z" fill="#94a3b8" />
      <path d="M 39 42 L 37 54 L 32 54 L 32 42 Z" fill="#64748b" opacity="0.4" />
      <path d="M 24 45 Q 32 48 40 45" stroke="#64748b" stroke-width="2" fill="none" stroke-linecap="round" />
      <path d="M 25 49 Q 32 52 39 49" stroke="#64748b" stroke-width="2" fill="none" stroke-linecap="round" />
      <path d="M 26 53 Q 32 56 38 53" stroke="#64748b" stroke-width="2" fill="none" stroke-linecap="round" />
      <path d="M 28 54 L 36 54 C 36 58 34 60 32 60 C 30 60 28 58 28 54 Z" fill="#334155" />
      <path d="M 32 60 C 34 60 36 58 36 54 L 32 54 Z" fill="#1e293b" opacity="0.4" />
  
        </g>
      </g>
    </g>
  
    <g transform="translate(369.2, 292.4)">
      <!-- Cell bg -->
      <rect width="68.8" height="68.8" rx="8" fill="rgba(30, 41, 59, 0.8)" stroke="rgba(51, 65, 85, 0.5)" stroke-width="1" filter="url(#cell-shadow)"/>
      
    <rect width="68.8" height="68.8" rx="8" fill="rgba(245, 158, 11, 0.2)" stroke="rgba(251, 191, 36, 0.3)" stroke-width="2" filter="url(#glow)"/>
  
      
      <g transform="translate(0, 0) scale(1)">
        <!-- Scale to 64x64 internal viewBox -->
        <g transform="scale(1.075)" opacity="1">
          
      <circle cx="32" cy="22" r="22" fill="#fbbf24" opacity="0.3" filter="blur(4px)" />
      <path d="M 32 4 A 18 18 0 0 0 14 22 C 14 31 22 36 25 42 L 39 42 C 42 36 50 31 50 22 A 18 18 0 0 0 32 4 Z" fill="#fbbf24" stroke="#f59e0b" stroke-width="1" />
      <path d="M 32 4 A 18 18 0 0 0 14 22 C 14 31 22 36 25 42 L 39 42 C 42 36 50 31 50 22 A 18 18 0 0 0 32 4 Z" fill="url(#glassGlow)" />
      <path d="M 18 20 A 12 12 0 0 1 28 8" stroke="#ffffff" opacity="0.5" stroke-width="2" stroke-linecap="round" fill="none" />
      <path d="M 29 42 L 29 28 M 35 42 L 35 28" stroke="#d97706" stroke-width="1.5" stroke-linecap="round" />
      <path d="M 29 28 L 30 21 L 31 25 L 32 21 L 33 25 L 34 21 L 35 28" stroke="#fef3c7" fill="none" stroke-width="1.5" stroke-linejoin="round" stroke-linecap="round" />
    
      <path d="M 25 42 L 39 42 L 37 54 L 27 54 Z" fill="#94a3b8" />
      <path d="M 39 42 L 37 54 L 32 54 L 32 42 Z" fill="#64748b" opacity="0.4" />
      <path d="M 24 45 Q 32 48 40 45" stroke="#64748b" stroke-width="2" fill="none" stroke-linecap="round" />
      <path d="M 25 49 Q 32 52 39 49" stroke="#64748b" stroke-width="2" fill="none" stroke-linecap="round" />
      <path d="M 26 53 Q 32 56 38 53" stroke="#64748b" stroke-width="2" fill="none" stroke-linecap="round" />
      <path d="M 28 54 L 36 54 C 36 58 34 60 32 60 C 30 60 28 58 28 54 Z" fill="#334155" />
      <path d="M 32 60 C 34 60 36 58 36 54 L 32 54 Z" fill="#1e293b" opacity="0.4" />
  
        </g>
      </g>
    </g>
  
    <g transform="translate(62, 369.2)">
      <!-- Cell bg -->
      <rect width="68.8" height="68.8" rx="8" fill="rgba(30, 41, 59, 0.8)" stroke="rgba(51, 65, 85, 0.5)" stroke-width="1" filter="url(#cell-shadow)"/>
      
      
    <rect x="4" y="4" width="60.8" height="60.8" rx="32" fill="rgba(0,0,0,0.4)" />
  
      <g transform="translate(8.6, 8.6) scale(0.75)">
        <!-- Scale to 64x64 internal viewBox -->
        <g transform="scale(1.075)" opacity="0.6">
          
      <path d="M 32 4 A 18 18 0 0 0 14 22 C 14 31 22 36 25 42 L 39 42 C 42 36 50 31 50 22 A 18 18 0 0 0 32 4 Z" fill="#334155" stroke="#475569" stroke-width="1" />
      <path d="M 18 20 A 12 12 0 0 1 28 8" stroke="#ffffff" opacity="0.1" stroke-width="2" stroke-linecap="round" fill="none" />
      <path d="M 29 42 L 29 28 M 35 42 L 35 28" stroke="#1e293b" stroke-width="1.5" stroke-linecap="round" />
      <path d="M 29 28 L 30 21 L 31 25 L 32 21 L 33 25 L 34 21 L 35 28" stroke="#64748b" opacity="0.4" fill="none" stroke-width="1.5" stroke-linejoin="round" stroke-linecap="round" />
    
      <path d="M 25 42 L 39 42 L 37 54 L 27 54 Z" fill="#94a3b8" />
      <path d="M 39 42 L 37 54 L 32 54 L 32 42 Z" fill="#64748b" opacity="0.4" />
      <path d="M 24 45 Q 32 48 40 45" stroke="#64748b" stroke-width="2" fill="none" stroke-linecap="round" />
      <path d="M 25 49 Q 32 52 39 49" stroke="#64748b" stroke-width="2" fill="none" stroke-linecap="round" />
      <path d="M 26 53 Q 32 56 38 53" stroke="#64748b" stroke-width="2" fill="none" stroke-linecap="round" />
      <path d="M 28 54 L 36 54 C 36 58 34 60 32 60 C 30 60 28 58 28 54 Z" fill="#334155" />
      <path d="M 32 60 C 34 60 36 58 36 54 L 32 54 Z" fill="#1e293b" opacity="0.4" />
  
        </g>
      </g>
    </g>
  
    <g transform="translate(138.8, 369.2)">
      <!-- Cell bg -->
      <rect width="68.8" height="68.8" rx="8" fill="rgba(30, 41, 59, 0.8)" stroke="rgba(51, 65, 85, 0.5)" stroke-width="1" filter="url(#cell-shadow)"/>
      
    <rect width="68.8" height="68.8" rx="8" fill="rgba(245, 158, 11, 0.2)" stroke="rgba(251, 191, 36, 0.3)" stroke-width="2" filter="url(#glow)"/>
  
      
      <g transform="translate(0, 0) scale(1)">
        <!-- Scale to 64x64 internal viewBox -->
        <g transform="scale(1.075)" opacity="1">
          
      <circle cx="32" cy="22" r="22" fill="#fbbf24" opacity="0.3" filter="blur(4px)" />
      <path d="M 32 4 A 18 18 0 0 0 14 22 C 14 31 22 36 25 42 L 39 42 C 42 36 50 31 50 22 A 18 18 0 0 0 32 4 Z" fill="#fbbf24" stroke="#f59e0b" stroke-width="1" />
      <path d="M 32 4 A 18 18 0 0 0 14 22 C 14 31 22 36 25 42 L 39 42 C 42 36 50 31 50 22 A 18 18 0 0 0 32 4 Z" fill="url(#glassGlow)" />
      <path d="M 18 20 A 12 12 0 0 1 28 8" stroke="#ffffff" opacity="0.5" stroke-width="2" stroke-linecap="round" fill="none" />
      <path d="M 29 42 L 29 28 M 35 42 L 35 28" stroke="#d97706" stroke-width="1.5" stroke-linecap="round" />
      <path d="M 29 28 L 30 21 L 31 25 L 32 21 L 33 25 L 34 21 L 35 28" stroke="#fef3c7" fill="none" stroke-width="1.5" stroke-linejoin="round" stroke-linecap="round" />
    
      <path d="M 25 42 L 39 42 L 37 54 L 27 54 Z" fill="#94a3b8" />
      <path d="M 39 42 L 37 54 L 32 54 L 32 42 Z" fill="#64748b" opacity="0.4" />
      <path d="M 24 45 Q 32 48 40 45" stroke="#64748b" stroke-width="2" fill="none" stroke-linecap="round" />
      <path d="M 25 49 Q 32 52 39 49" stroke="#64748b" stroke-width="2" fill="none" stroke-linecap="round" />
      <path d="M 26 53 Q 32 56 38 53" stroke="#64748b" stroke-width="2" fill="none" stroke-linecap="round" />
      <path d="M 28 54 L 36 54 C 36 58 34 60 32 60 C 30 60 28 58 28 54 Z" fill="#334155" />
      <path d="M 32 60 C 34 60 36 58 36 54 L 32 54 Z" fill="#1e293b" opacity="0.4" />
  
        </g>
      </g>
    </g>
  
    <g transform="translate(215.6, 369.2)">
      <!-- Cell bg -->
      <rect width="68.8" height="68.8" rx="8" fill="rgba(30, 41, 59, 0.8)" stroke="rgba(51, 65, 85, 0.5)" stroke-width="1" filter="url(#cell-shadow)"/>
      
      
    <rect x="4" y="4" width="60.8" height="60.8" rx="32" fill="rgba(0,0,0,0.4)" />
  
      <g transform="translate(8.6, 8.6) scale(0.75)">
        <!-- Scale to 64x64 internal viewBox -->
        <g transform="scale(1.075)" opacity="0.6">
          
      <path d="M 32 4 A 18 18 0 0 0 14 22 C 14 31 22 36 25 42 L 39 42 C 42 36 50 31 50 22 A 18 18 0 0 0 32 4 Z" fill="#334155" stroke="#475569" stroke-width="1" />
      <path d="M 18 20 A 12 12 0 0 1 28 8" stroke="#ffffff" opacity="0.1" stroke-width="2" stroke-linecap="round" fill="none" />
      <path d="M 29 42 L 29 28 M 35 42 L 35 28" stroke="#1e293b" stroke-width="1.5" stroke-linecap="round" />
      <path d="M 29 28 L 30 21 L 31 25 L 32 21 L 33 25 L 34 21 L 35 28" stroke="#64748b" opacity="0.4" fill="none" stroke-width="1.5" stroke-linejoin="round" stroke-linecap="round" />
    
      <path d="M 25 42 L 39 42 L 37 54 L 27 54 Z" fill="#94a3b8" />
      <path d="M 39 42 L 37 54 L 32 54 L 32 42 Z" fill="#64748b" opacity="0.4" />
      <path d="M 24 45 Q 32 48 40 45" stroke="#64748b" stroke-width="2" fill="none" stroke-linecap="round" />
      <path d="M 25 49 Q 32 52 39 49" stroke="#64748b" stroke-width="2" fill="none" stroke-linecap="round" />
      <path d="M 26 53 Q 32 56 38 53" stroke="#64748b" stroke-width="2" fill="none" stroke-linecap="round" />
      <path d="M 28 54 L 36 54 C 36 58 34 60 32 60 C 30 60 28 58 28 54 Z" fill="#334155" />
      <path d="M 32 60 C 34 60 36 58 36 54 L 32 54 Z" fill="#1e293b" opacity="0.4" />
  
        </g>
      </g>
    </g>
  
    <g transform="translate(292.4, 369.2)">
      <!-- Cell bg -->
      <rect width="68.8" height="68.8" rx="8" fill="rgba(30, 41, 59, 0.8)" stroke="rgba(51, 65, 85, 0.5)" stroke-width="1" filter="url(#cell-shadow)"/>
      
    <rect width="68.8" height="68.8" rx="8" fill="rgba(245, 158, 11, 0.2)" stroke="rgba(251, 191, 36, 0.3)" stroke-width="2" filter="url(#glow)"/>
  
      
      <g transform="translate(0, 0) scale(1)">
        <!-- Scale to 64x64 internal viewBox -->
        <g transform="scale(1.075)" opacity="1">
          
      <circle cx="32" cy="22" r="22" fill="#fbbf24" opacity="0.3" filter="blur(4px)" />
      <path d="M 32 4 A 18 18 0 0 0 14 22 C 14 31 22 36 25 42 L 39 42 C 42 36 50 31 50 22 A 18 18 0 0 0 32 4 Z" fill="#fbbf24" stroke="#f59e0b" stroke-width="1" />
      <path d="M 32 4 A 18 18 0 0 0 14 22 C 14 31 22 36 25 42 L 39 42 C 42 36 50 31 50 22 A 18 18 0 0 0 32 4 Z" fill="url(#glassGlow)" />
      <path d="M 18 20 A 12 12 0 0 1 28 8" stroke="#ffffff" opacity="0.5" stroke-width="2" stroke-linecap="round" fill="none" />
      <path d="M 29 42 L 29 28 M 35 42 L 35 28" stroke="#d97706" stroke-width="1.5" stroke-linecap="round" />
      <path d="M 29 28 L 30 21 L 31 25 L 32 21 L 33 25 L 34 21 L 35 28" stroke="#fef3c7" fill="none" stroke-width="1.5" stroke-linejoin="round" stroke-linecap="round" />
    
      <path d="M 25 42 L 39 42 L 37 54 L 27 54 Z" fill="#94a3b8" />
      <path d="M 39 42 L 37 54 L 32 54 L 32 42 Z" fill="#64748b" opacity="0.4" />
      <path d="M 24 45 Q 32 48 40 45" stroke="#64748b" stroke-width="2" fill="none" stroke-linecap="round" />
      <path d="M 25 49 Q 32 52 39 49" stroke="#64748b" stroke-width="2" fill="none" stroke-linecap="round" />
      <path d="M 26 53 Q 32 56 38 53" stroke="#64748b" stroke-width="2" fill="none" stroke-linecap="round" />
      <path d="M 28 54 L 36 54 C 36 58 34 60 32 60 C 30 60 28 58 28 54 Z" fill="#334155" />
      <path d="M 32 60 C 34 60 36 58 36 54 L 32 54 Z" fill="#1e293b" opacity="0.4" />
  
        </g>
      </g>
    </g>
  
    <g transform="translate(369.2, 369.2)">
      <!-- Cell bg -->
      <rect width="68.8" height="68.8" rx="8" fill="rgba(30, 41, 59, 0.8)" stroke="rgba(51, 65, 85, 0.5)" stroke-width="1" filter="url(#cell-shadow)"/>
      
      
    <rect x="4" y="4" width="60.8" height="60.8" rx="32" fill="rgba(0,0,0,0.4)" />
  
      <g transform="translate(8.6, 8.6) scale(0.75)">
        <!-- Scale to 64x64 internal viewBox -->
        <g transform="scale(1.075)" opacity="0.6">
          
      <path d="M 32 4 A 18 18 0 0 0 14 22 C 14 31 22 36 25 42 L 39 42 C 42 36 50 31 50 22 A 18 18 0 0 0 32 4 Z" fill="#334155" stroke="#475569" stroke-width="1" />
      <path d="M 18 20 A 12 12 0 0 1 28 8" stroke="#ffffff" opacity="0.1" stroke-width="2" stroke-linecap="round" fill="none" />
      <path d="M 29 42 L 29 28 M 35 42 L 35 28" stroke="#1e293b" stroke-width="1.5" stroke-linecap="round" />
      <path d="M 29 28 L 30 21 L 31 25 L 32 21 L 33 25 L 34 21 L 35 28" stroke="#64748b" opacity="0.4" fill="none" stroke-width="1.5" stroke-linejoin="round" stroke-linecap="round" />
    
      <path d="M 25 42 L 39 42 L 37 54 L 27 54 Z" fill="#94a3b8" />
      <path d="M 39 42 L 37 54 L 32 54 L 32 42 Z" fill="#64748b" opacity="0.4" />
      <path d="M 24 45 Q 32 48 40 45" stroke="#64748b" stroke-width="2" fill="none" stroke-linecap="round" />
      <path d="M 25 49 Q 32 52 39 49" stroke="#64748b" stroke-width="2" fill="none" stroke-linecap="round" />
      <path d="M 26 53 Q 32 56 38 53" stroke="#64748b" stroke-width="2" fill="none" stroke-linecap="round" />
      <path d="M 28 54 L 36 54 C 36 58 34 60 32 60 C 30 60 28 58 28 54 Z" fill="#334155" />
      <path d="M 32 60 C 34 60 36 58 36 54 L 32 54 Z" fill="#1e293b" opacity="0.4" />
  
        </g>
      </g>
    </g>
  </svg>